# xmcd
#
# Track frame offsets:
#	150
#	28474
#	46237
#	68716
#	104423
#	123133
#	146558
#	163278
#	184868
#	206925
#
# Disc length: 2918 seconds
#
# Revision: 1
# Processed by: cddbd v1.5.1PL2 Copyright (c) Steve Scherf et al.
# Submitted via: audiograbber 1.81.02
#
DISCID=980b640a
DTITLE=Various Artist - Gospels TOP 20 - Volume2 CD2
DYEAR=2005
DGENRE=Gospel
TTITLE0=Vickie Winans - We shall behold him
TTITLE1=Ricky  Dillard - Worked it out
TTITLE2=The Mighty Clouds of Joy - Ive been in the storm too long
TTITLE3=Rev. Ernest Davis Jr. - Hes preparing me
TTITLE4=Shirley Caesar - Sailin on the Sea of Your Love
TTITLE5=Rev. Lawrence - Youve beeb good to me
TTITLE6=Andrae Crouch - Soon and very soon
TTITLE7=Walter Hawkins - When the battle is over
TTITLE8=5 Blind Boys From Alabama - Im not that way anymore
TTITLE9=The Impressions - People get ready
EXTD=www.gerth.de
EXTT0=
EXTT1=
EXTT2=
EXTT3=
EXTT4=
EXTT5=
EXTT6=
EXTT7=
EXTT8=
EXTT9=
PLAYORDER=
